<svg id="CuahsiLogo" data-name="CuahsiLogo"
    xmlns="http://www.w3.org/2000/svg"
    xmlns:xlink="http://www.w3.org/1999/xlink" viewBox="0 0 813.02 763.39">
    <defs>
        <style>.cls-1 {
    fill: #00bdef
  }
  .cls-2 {
    fill: #231f20;
  }
  .cls-3 {
    fill: #888888;
  }
  .cls-4 {
    fill: #0095ca
  }
  .cls-5 {
    fill: #55a041
  }
  .cls-12,
  .cls-6 {
    fill: none;
  }
  .cls-7 {
    fill: #0095ca
  }
  .cls-8 {
    fill: #fff;
  }
  .cls-9 {
    fill: #0095ca
  }
  .cls-10 {
    fill: #745f42
  }
  .cls-11 {
    fill: #0095ca
  }
  .cls-12 {
    stroke: #231f20;
    stroke-width: 34px;
  }
  </style>
</defs>
<title>CUAHSI Logo</title>
<polyline class="cls-1" points="734.12 182.22 778.31 371.85 621.14 395.81 449.98 389.38 227.45 310.22 92.64 226.76 194.66 103.04 266.45 66.23 358.51 31.25 489.25 23.88 607.1 75.43 589.27 157.71 702.75 186.08"/>
<path class="cls-2" d="M243.63,349.12s76.74-31.47,79.08-31.47,13.19-10.86,13.19-10.86l7-.78,6.2-9.3,9.31-6.21,10.1-14.75,7-6.21,10.09-10.08,5.44-7,17.07,12.4,18.62,21.74h4.66l3.09,1.55s12.43,18.63,23.3,21,14.72,8.53,14.72,8.53l7.77-1.54h8.52s3.91,10.06,10.1,12.4,24.81,14.75,24.81,14.75l3.9,7.75h8.55l8.53,10.86,8.53,5.44,8.54,7.77s16.29,8.52,18.61,8.52,24.84,10.09,24.84,10.09l7.75,7s18.65,7,23.28,7,13.2,4.62,13.2,4.62l27.06,6.23,24.93,19.4-286.33,64.4L242,478.27" transform="translate(-149.46 -128.14)"/>
<path class="cls-3" d="M223.47,365s96.9-28.68,99.24-28.68,13.19-10.87,13.19-10.87l7-.77,6.2-9.31,9.31-6.21,10.1-14.73,7-6.23,10.09-10.07,5.44-7,17.07,12.43,18.62,21.71h4.66l3.09,1.56s12.43,18.62,23.3,20.93,14.72,8.56,14.72,8.56l7.77-1.55h8.52s3.91,10.08,10.1,12.43,24.81,14.71,24.81,14.71l3.9,7.78h8.55l8.53,10.86,8.53,5.43,8.54,7.75s16.29,8.54,18.61,8.54,24.84,10.07,24.84,10.07l7.75,7s18.65,7,23.28,7,13.2,4.66,13.2,4.66l27.06,6.21,24.93,19.38L415.05,521l-185.5-5.18" transform="translate(-149.46 -128.14)"/>
<path class="cls-4" d="M920.2,448s-8.55,0-17.84-.78S869,444.9,869,444.9s-99.33,69.85-99.33,75.28S638.53,658.3,638.53,658.3L566.9,698.84l141.76,7.38,47.9,5.52,47.85,7.35s35.37-9.2,42.35-9.2,19.9-14.34,19.9-14.34l59.75-113.31Z" transform="translate(-149.46 -128.14)"/>
<path class="cls-2" d="M826.2,434.62S796.49,431,782.52,431s-48.08-1.56-60.52-1.56-26.38.8-33.36.8-17.85,2.3-17.85,2.3,10.87-5.44-20.95-1.54-37.25,2.31-45,3.09-5.42,0-29.49,0-24.81-6.19-32.58-4.65-21,3.1-24,6.21-3.88,2.33-13.19-2.34-8.54-7-14.85-7-7.66,6.2-10,6.2a24.3,24.3,0,0,0-7,.77c-3.07.78-5.41.22-10.07,3.9a36.49,36.49,0,0,1-10.08,5.43s-3.1-2.34-12.41-4.66-13.2-4.67-22.51-1.55,10.08,2.32-16.29,11.63-19.41,3.09-24.85,3.09-14,3.12-17.07,3.9S348,459.65,348,459.65s-19.4.77-24.82,0-15.53,5.43-19.4,7.76-76.2,29.45-76.2,29.45L334,676.91l241.3,45s35.7-47.35,50.44-54.32,24.06-21.72,42.67-26.38,29.31-2.32,31.73-14.76,21.82-17.07,28-17.83.77-3.11,11.63-14.74,54.32-21.73,40.35-25.61-45-7.77-30.27-13.2,55.09-11.62,66-12.4,46.56-5.43,25.62-13.2-23.29-14.74-26.39-21-3.89-10.07-17.07-20.16-3.1-3.88,7.75-8.54,8.53-5.44,21-9.3,18.62-4.67,21-6.2,10.08-.78.77-6.22-14-4.67-2.33-9.31,32.05,2.83,36.69.5-10.94-10.5-21.81-10.5S826.2,434.62,826.2,434.62Z" transform="translate(-149.46 -128.14)"/>
<path class="cls-2" d="M868.08,447.4s-45.8-2.32-59.75-2.32-48.12-1.56-60.52-1.56-26.38.78-33.38.78-17.85,2.34-17.85,2.34,10.87-5.45-20.94-1.56-37.25,2.32-45,3.09-5.42,0-29.48,0-24.82-6.2-32.58-4.65-20.94,3.12-24.06,6.21-3.87,2.33-13.19-2.33-8.54-7-14.85-7-7.67,6.23-10,6.23a24.44,24.44,0,0,0-7,.76c-3.09.77-5.43.18-10.08,3.88a35.68,35.68,0,0,1-10.09,5.43s-3.1-2.32-12.41-4.65-13.2-4.66-22.51-1.55,10.09,2.32-16.27,11.64-19.43,3.09-24.86,3.09-13.95,3.12-17.08,3.9-12.41,4.64-12.41,4.64-19.37.78-24.82,0-15.51,5.44-19.41,7.77-29.46,16.28-29.46,16.28l59.74,193.23,206.06-25.13s61.6,15.62,76.35,8.63,23.94-21.85,42.55-26.51,38.76,5,41.18-7.44,21.84-17.07,28-17.85.77-3.09,11.63-14.73S820,586.31,806,582.43s-45-7.77-30.26-13.21,55.1-11.64,66-12.41,46.57-5.41,25.61-13.19S844,528.88,840.91,522.69,837,512.57,823.84,502.5s-3.1-3.88,7.75-8.54,8.55-5.43,21-9.31,18.61-4.65,21-6.21,10.08-.78.78-6.21S859.05,463.6,870.7,459s8.34-5.64,13-8,5.84-8.83-5-8.83S868.08,447.4,868.08,447.4Z" transform="translate(-149.46 -128.14)"/>
<path class="cls-5" d="M851.15,444.57s-45.79-2.31-59.76-2.31-48.1-1.57-60.51-1.57-26.39.78-33.37.78-17.84,2.35-17.84,2.35,10.85-5.45-20.95-1.56-37.26,2.31-45,3.09-5.45,0-29.48,0-24.82-6.19-32.6-4.66-20.94,3.13-24,6.22-3.88,2.32-13.19-2.34-8.53-7-14.84-7-7.66,6.22-10,6.22a24.72,24.72,0,0,0-7,.75c-3.09.78-5.44.2-10.09,3.89a36,36,0,0,1-10.09,5.43s-3.1-2.33-12.4-4.66-13.19-4.66-22.51-1.53,10.09,2.31-16.31,11.62-19.39,3.09-24.82,3.09-14,3.11-17.07,3.89S356.87,471,356.87,471s-19.41.79-24.82,0-15.53,5.43-19.41,7.75-85.32,25.94-85.32,25.94l-10,2.23,36.82,171.17S579,700,594.9,696.55c5.51-1.21,15.1-11.2,27.51-18.11,5.89-3.28,13.37-2.32,19.59-6,17.65-10.39,35-21.14,42.88-25.57,13.42-7.53,12.88-3.17,24.18-9.09s21.82-17.06,28-17.84.8-3.1,11.65-14.74,54.32-21.74,40.35-25.62-45-7.74-30.26-13.19,55.1-11.62,66-12.41,46.56-5.44,25.61-13.19S827.1,526.06,824,519.85s-3.88-10.09-17.07-20.17-3.12-3.88,7.76-8.55,8.53-5.43,21-9.3,18.62-4.65,20.93-6.21,10.1-.78.79-6.21-14-4.65-2.34-9.31a136.34,136.34,0,0,0,17.09-7.78c4.65-2.31,8.53-7-2.34-7S851.15,444.57,851.15,444.57Z" transform="translate(-149.46 -128.14)"/>
<path class="cls-6" d="M862.79,444.13S817,441.81,803,441.81s-48.1-1.56-60.52-1.56-26.38.78-33.37.78-17.84,2.32-17.84,2.32,10.87-5.42-20.95-1.54-37.26,2.32-45,3.09-5.44,0-29.48,0-24.83-6.2-32.6-4.65-20.94,3.1-24,6.21-3.88,2.33-13.19-2.33-8.53-7-14.85-7-7.65,6.19-10,6.19a23.84,23.84,0,0,0-7,.78c-3.1.77-5.45.19-10.09,3.88A36,36,0,0,1,474,453.43s-3.1-2.33-12.4-4.64-13.21-4.66-22.52-1.56,10.08,2.34-16.3,11.66S403.4,462,398,462s-14,3.1-17.07,3.87-12.4,4.67-12.4,4.67-19.41.77-24.83,0-15.53,5.43-19.42,7.75-29.46,16.3-29.46,16.3l59.74,193.2,241.32,45s35.71-47.32,50.43-54.32S670.34,656.75,689,652.1s29.28-2.33,31.72-14.77,21.81-17.07,28-17.83.77-3.1,11.64-14.74,54.31-21.74,40.36-25.62-45-7.75-30.28-13.18,55.09-11.63,66-12.42S883,548.11,862,540.35s-23.28-14.76-26.37-21-3.88-10.07-17.07-20.16-3.11-3.89,7.75-8.54,8.54-5.43,20.94-9.3,18.64-4.66,21-6.22,10.08-.79.77-6.2-14-4.65-2.32-9.32a136.79,136.79,0,0,0,17.07-7.77c4.66-2.31,8.53-7-2.32-7S862.79,444.13,862.79,444.13Z" transform="translate(-149.46 -128.14)"/>
<path class="cls-7" d="M480.05,435.87s16.6,4.18-2.93,14.48c-11.09,5.83-10.87,6.19,7,9.3s43.45.77,23.27,4.67-39.57,6.77-27.91,10.75,11.63,7.1,48.86,13.29,27.17-4.65,55.88,9.32,49.65,8.54,22.49,15.5-106.29-.76-69.82,14,86.91,21.73,45.77,27.93-144.32,42.68-145.88,55.1,87.77,34.73,87.77,34.73,134.79,25.16,138.67,26.71-9.16,6.08-3,6.08,35.7-3.1,49.66,0S727,682.36,744.84,680s19.38,2.33,28.69,2.33,36.48-.78,45.8.77,42,5.2,42,5.2,52.41-75.2,34.57-74.43-95,35-109,31.89-68.12,4.66-73.55,6.21-39.08-7.74-46.07-12.4-27.67-5-41.64-8.86-35.54-11.17-47.86-16.62S496.54,598.54,521.35,590s136.57-41.12,90.79-51.21-78.38-18.62-59-17.84,109.41-7,72.94-17.85-67.51-20.18-76.83-19.4-49.65-7-54.31-7.76-9.31-3.1,5.44-7,31-10.08,16.29-10.87-31-1.56-34.92-3.1,3.18-4.43,6.21-7c7.87-6.64-2.53-14.47-2.53-14.47" transform="translate(-149.46 -128.14)"/>
<path class="cls-8" d="M869.62,346.46a174.06,174.06,0,0,0-15.23-25.94" transform="translate(-149.46 -128.14)"/>
<polyline class="cls-9" points="629.72 667.44 528.83 656.56 453.55 572.77 455.11 562.68 548.84 576 650.65 577.31 734.87 575.24"/>
<path class="cls-2" d="M774.32,791.86s-24.84-7.76-31-7.76-21.73-5.44-38.8-17.88S686.63,750,675.77,744.5s-24.83-20.16-40.36-31-17.85-14.57-31.83-22.33-25.58-4.83-48.08-5.62-41.9-7.75-48.9-7.75c0,0-68.89,3.35-83.36-1.1s-17.81-15.59-52.31-13.37-63.46-1.1-82.37-1.1-43.41-1.12-43.41-1.12l41.41,72.72L375,806.93l134,46.71,127.8,2.45,65.2-3.34,76.41-48.38" transform="translate(-149.46 -128.14)"/>
<path class="cls-10" d="M774.32,805.26s-24.84-7.74-31-7.74-21.73-5.43-38.8-17.86-17.85-16.29-28.71-21.73-24.83-20.16-40.36-31-17.85-14.55-31.83-22.31S578,699.75,555.5,699s-41.9-7.76-48.9-7.76c0,0-68.89,3.36-83.36-1.09s-17.81-15.59-52.31-13.36-63.46-1.13-82.37-1.13-43.41-1.1-43.41-1.1l41.41,72.71,99.51,64.62L520,863.47l116.75-7.38L704.36,845l66.36-44.25" transform="translate(-149.46 -128.14)"/>
<path class="cls-2" d="M449.83,595.74s16.6-9.35,28.94-13c14.69-4.35,79.32-24.74,83.92-25.16s37.76-7.14,29-10.5-93.16-26-64.64-29.77,55.82-1.29,62.12-3,45.33-3.35,10.07-8.81-27.7-11.75-31.48-12.17-47.83-2.09-57.9-5-56.22-16-28.54-21,35.25-3.78,14.28-5-33.58-5.44-28.12-8.39,16.36-7.13,13.43-8.39-1.67-4.6-1.67-4.6,8.36.45,6.68,2.55-17.61,11.7-14.24,13.78,61.24,2.54,30.21,8.83-27.16,6.24-22.38,9,24.48,8.21,30.35,9.45,40.29,5.06,42.81,5.06,14.26-2.52,21.4,2.93,16.36,7.55,21.39,9.23,41.13,6.71,14.69,11.33-94.4,2.93-78.89,10.48,48.26,17.2,54.14,19.32,34.82,5.46-7.13,14.69-108.8,33.06-114.15,35.65c-5.07,2.5-5.26,3.3-9.75,5.56-4,2.05-23,11-10.21,17.7s74.31,26.13,74.31,26.13l-7.22,3.12s-54.43-17.27-64.78-23.82-18.38-12.78-6.94-19.85S449.83,595.74,449.83,595.74Z" transform="translate(-149.46 -128.14)"/>
<path class="cls-2" d="M493,439a81.15,81.15,0,0,1-2.46,9.46c-1.1,2.83-6.71,5.88-4.61,6.3s30.63,2.94,32.74,2.94,8.37,3.77,0,7.53a189.55,189.55,0,0,1-23.08,8.41c-2.1.41,3.78,2.51,8,2.93s47.41,7.14,51.63,7.14,22.65,2.52,29.36,4.63,28.11,8.8,31.47,10.05,8.81,1.68,14.27,5,13.84,8.41-3.78,13-65.45,7.12-67.12,7.12,2.5,3,7.13,3.78,42.8,10.09,46.14,10.49,27.27,5,5.47,17.63-62.1,29.37-72.61,31-31.05,6.31-24.75,9.66,45.75,14.26,51.62,14.26,24.33,1.68,36.51,10.07,14.69,4.19,32.71,10.91,52.87,12.15,56.65,8.81,13-2.09,13-2.09l10.46-4.62s-25,19.16-44.74,14.55-40.41-12-66.85-20.42-16.8-12.18-50.34-15.94-65.89-20.57-32.33-24.77,80.57-29.36,84.35-32.31,23.08-10.48-2.93-14.26-58.33-16.8-58.33-16.8-13-4.59,5.87-2.92,66.72-7.13,66.72-7.13,26.85-5-11.75-14.27-26.44-8.82-35.66-10.51-18.05-4.6-24.77-4.2-54.94-5.86-57.06-7.12-8.4-5,.82-6.71,22.26-7.13,23.94-8.39,2.5-4.19-3.78-3.78-26.51-.67-29.78-2.09-5.88-2.52-1.69-4.6,8.79-8.11,7.22-12" transform="translate(-149.46 -128.14)"/>
<path class="cls-2" d="M447.13,396.89s11.63,1.58,8.55,3.89-9.33,2.34-6.21,5.43,11.64,1.56,19.39,1.56,17.85,3.88,5.44,7.77-22.52,7.17-16.31,10.08,24.84,8.52,24.84,8.52l-5.44,2.33s-33.32-12.5-23.23-17.35S485.39,411.2,466,412s-25.83-8.75-18.07-10.31S447.13,396.89,447.13,396.89Z" transform="translate(-149.46 -128.14)"/>
<path class="cls-2" d="M448.25,397s15.71-.67,11.73,3.29c-2.72,2.76-8.7,2-5.6,5.1s10.78.51,18.54.51,18.45,5.88,6,9.76-21.93,6.16-15.72,9.07,24.17,8,24.17,8L481.72,436s-33.33-12.51-23.23-17.36,31.22-7.92,11.84-7.15-25.83-8.75-18.05-10.3S448.25,397,448.25,397Z" transform="translate(-149.46 -128.14)"/>
<path class="cls-11" d="M448.25,397s13.16.88,10.06,3.2-9.31,2.33-6.2,5.43,11.63,1.56,19.4,1.56,17.84,3.87,5.43,7.76-22.5,7.17-16.29,10.08,25.49,9.11,25.49,9.11l-4.77,2.19s-34.7-11.88-24.6-16.73S489.35,410.26,470,411s-27.16-7.76-19.41-9.3S448.25,397,448.25,397Z" transform="translate(-149.46 -128.14)"/>
<path class="cls-8" d="M770.72,209.49" transform="translate(-149.46 -128.14)"/>
<path class="cls-2" d="M603,690.92s45.41,3.86,54.74,6.58,48.56,6.81,58.56,5.44,11.8-4.09,33.59-1.12,41.1,4.29,51.77.89,75.49,1.66,75.49,1.66-63.92,1.08-68.69,2.66-51.76,0-64.23-.21-7.28,6.8-28.62,4.53-27.69-7.05-46.54-7.49A156.36,156.36,0,0,1,628.46,698a135.94,135.94,0,0,0-21.36-3.63" transform="translate(-149.46 -128.14)"/>
<path class="cls-2" d="M359.12,327l-1-24.71s9.27-16.49,13.4-18.56,19.5-3.36,19.5-3.36,14.49,7,17.07,12.41,18.62,21.72,18.62,21.72,6.72-5.64,9.73-.9S462.18,328,462.18,328l-34-4.13-10.32-9.26-6.18-4.12-4.11,7.2-8.26,20.61L389,333.18l-8.24-20.6Z" transform="translate(-149.46 -128.14)"/>
<path class="cls-8" d="M364.28,317.72l2.07-21.64s8.24-10.29,12.35-12.36S391,271.09,391,271.09s14.49,7.05,17.07,12.43,18.62,21.71,18.62,21.71,4.77-3.21,7.75,1.56,14.33,16.09,14.33,16.09l-20.59-8.24-10.32-9.29-6.18-4.1-4.11,7.21-8.26,20.6L389,323.9l-5.14-22.65Z" transform="translate(-149.46 -128.14)"/>
<path class="cls-2" d="M518.43,642.6s14.28,4.41,24.85,4.66,54.42,7.88,64.27,10.11,60.81,10.33,39.4,17S628.72,680,624.29,680s-17.69,12.45-17.69,12.45L603,690.92l19.13-15.06s29.73-6.44,17.67-7.18-4.66-1.48-30.53-5.65S529,649.47,521.87,648s-10.66-2.27-10.66-2.27l-5.35-3.87" transform="translate(-149.46 -128.14)"/>
<path class="cls-2" d="M312.33,725.83s30.72-25.8,92.17,0,77.43,9.84,92.16,8.6S603.58,723.37,612.18,732s46.2,44,66.1,52.72,67.86,27.16,67.86,27.16l-14.76,2.45a129.07,129.07,0,0,1-27-8.61c-13.53-6.14-52.85-22.12-72.52-38.08s-41.78-30.72-59-28.26-76.2,8.58-95.86,7.36-81.1-18.43-100.77-20.89-61.44,9.84-61.44,9.84" transform="translate(-149.46 -128.14)"/>
<path class="cls-2" d="M363.94,778.67s61.45,1.24,76.2,2.46,54.06,4.93,87.25,1.23,57.75-13.5,88.48-1.23,34.41,13.54,50.38,18.43,51.61,17.22,51.61,17.22l-4.92,7.37S622,794.67,614.64,791s-45.47-8.61-56.53-6.15-82.34,7.37-99.54,7.37-87.25-2.45-87.25-2.45Z" transform="translate(-149.46 -128.14)"/>
<path class="cls-8" d="M769,233.63s53.22,40.82,85.35,86.89l-19.58-11.26L808.5,320.44l-29,4.77-32,25L721.69,337l-29.21-14.62L659.06,330l-34.83,5.31-15.72-10.37-7-16-9.27-6.75L580.7,298.8l-16.3-11.51,6.18-26.11,39.31,6.47,29.23-10.11,19.38-21.93,25.84-3.08,11.8-4.79-.57-23.59,12.08-12.36,9.56-16.57" transform="translate(-149.46 -128.14)"/>
<path class="cls-2" d="M705.31,191.57c-6.26,0-12.39-.13-15.6,6.65-5,10.56,9,18-.7,27.7-8.45,8.43-16.49,3.8-26.42,4.6-16.5,1.32-25.66,13-26.9,27.77-14.69,5.08-39.25,3.78-54.06.18,2.7.65-11-4.94-10.66-4.94-7,0-13,5.43-15.64,11.26C548.17,280.65,558.5,299.1,575,302c10.89,1.91,19.2-4.71,22.06,7.73,2.07,9.16-4.9,14.26,3.51,20.89,3.19,2.5,12.92,4.61,16.92,6.09,5.45,2,8.89,2.93,14.77,2.86,7.55-.1,13.54-2.07,20.53-4.58,9.88-3.5,25.57-11.46,35.88-6.81,7.9,3.58,9.55,15.07,16.06,19.46,9.76,6.58,26.69,9.51,38.62,7.91,12.78-1.69,19.14-7.32,27.36-16.47,7.95-8.85,10.6-13.34,22.6-14.48,9.1-.85,20.82,2.71,29.11-.22,8-2.89,29.55-29.06,30.22-35.67-6.73,17.45-48.55,30.79-70,31.21-5.45.1-8.21,6-12.89,8.67-5.85,3.38-18.82,15.37-25.45,14.95-4.65-.33-9.62-6.12-13-9.35-8.1-7.8-17.41-13.83-28.73-17.1-6.83-2-13.33-1.45-20.76.94-14.74,4.72-28.2,8.62-43.67,11-9.72,1.49-13.46,4.8-20.21-1.59-4.92-4.66-4.67-10.12-8.1-15.75-5.14-8.45-17.11-8-24.25-14.07-5.22-4.44-19.47-16.64-17.11-24.88,4.82-16.82,37.86,1.25,49.63,1.62,26.22.8,22.09-24.4,40.59-34.3,7.61-4.1,9.62-4,17.19-3.25,5.18.5,15.12,6.91,20.66,4.92,4.79-1.74,4-6.22,4-11.14,0-5.69-1.54-11.36-.62-17a36,36,0,0,1,1.84-6.68c2.88-8,9.23-15.48,13.17-22.92,6-11.42-6,3.24-.7-8.32" transform="translate(-149.46 -128.14)"/>
<path class="cls-12" d="M749.11,191.37c-120-67.35-272.93-62.71-390.9,24.45-161.32,119.1-196.14,347.33-77.83,509.7S625.4,923,786.71,803.88s196.13-347.34,77.81-509.73" transform="translate(-149.46 -128.14)"/>
<path class="cls-2" d="M800.45,228.33c18.5,50.55,34.9,118.92,34.45,170.46l44-78.26,83.54-31.82C911.84,281.29,847.22,254.48,800.45,228.33Z" transform="translate(-149.46 -128.14)"/>
<path class="cls-2" d="M786.08,196.28l-18.94,5.31,5.7,26.4s-12.61-9.81-20.73-14.28-11.49-6.63-11.49-6.63l7.77-35.26A160.47,160.47,0,0,1,770.47,185c6.08,4.32,11.08,7.91,14.92,10.75" transform="translate(-149.46 -128.14)"/>
<text x="-149.46" y="-128.14"></text>
</svg>
